<?xml version="1.0" standalone="no"?>
<!DOCTYPE svg PUBLIC "-//W3C//DTD SVG 20010904//EN"
 "http://www.w3.org/TR/2001/REC-SVG-20010904/DTD/svg10.dtd">
<svg version="1.0" xmlns="http://www.w3.org/2000/svg"
 width="256.000000pt" height="256.000000pt" viewBox="0 0 256.000000 256.000000"
 preserveAspectRatio="xMidYMid meet">
<metadata>
Created by potrace 1.11, written by Peter Selinger 2001-2013
</metadata>
<g transform="translate(0.000000,256.000000) scale(0.100000,-0.100000)"
fill="#000000" stroke="none">
<path d="M1208 2506 c-20 -8 -60 -30 -90 -48 -107 -68 -121 -72 -279 -78 -191
-7 -199 -12 -293 -171 -63 -109 -93 -139 -192 -194 -158 -88 -166 -100 -173
-295 -7 -155 -11 -171 -76 -275 -84 -132 -84 -189 -1 -333 31 -55 61 -115 66
-133 6 -19 10 -85 10 -147 0 -170 23 -210 167 -288 103 -57 148 -101 196 -192
47 -90 91 -140 137 -160 23 -10 78 -16 165 -18 143 -3 162 -8 272 -75 77 -48
146 -71 188 -63 29 4 69 23 211 99 l72 38 133 2 c176 2 211 20 275 133 77 135
110 176 163 203 72 37 147 84 171 108 43 42 53 81 55 222 3 143 2 139 98 311
23 40 39 83 41 109 3 44 -22 129 -48 158 -7 9 -31 49 -51 89 -37 73 -37 74
-40 212 -3 187 -12 202 -185 303 -101 58 -125 82 -180 183 -83 151 -120 173
-290 174 -63 0 -130 4 -149 10 -18 5 -79 35 -134 66 -110 64 -170 76 -239 50z"/>
</g>
</svg>
